<svg xmlns:x="http://ns.adobe.com/Extensibility/1.0/" xmlns:i="http://ns.adobe.com/AdobeIllustrator/10.0/" xmlns:graph="http://ns.adobe.com/Graphs/1.0/" xmlns="http://www.w3.org/2000/svg" xmlns:xlink="http://www.w3.org/1999/xlink" version="1.1" x="0px" y="0px" viewBox="0 0 64 80" enable-background="new 0 0 64 64" xml:space="preserve"><metadata><sfw xmlns="http://ns.adobe.com/SaveForWeb/1.0/"><slices/><sliceSourceBounds height="16384" width="16389" x="-8165" y="-8160" bottomLeftOrigin="true"/></sfw></metadata><g><path d="M54.586,49.668H39.168l-11.32-18.209c0-0.001,0-0.002-0.001-0.003c-0.873-1.405-0.441-3.259,0.964-4.132   c0.477-0.296,1.023-0.453,1.58-0.453c1.046,0,2,0.53,2.551,1.417c0.292,0.469,0.907,0.614,1.377,0.322   c0.306-0.19,0.473-0.517,0.473-0.852c0-0.18-0.049-0.362-0.15-0.526c-0.873-1.405-0.441-3.259,0.963-4.132   c0.477-0.296,1.023-0.453,1.581-0.453c1.045,0,1.997,0.528,2.549,1.413l0.002,0.003c0.291,0.469,0.906,0.615,1.378,0.321   c0.469-0.292,0.612-0.908,0.321-1.377l-2.111-3.397C36.751,15.472,32.038,13,26.718,13c-3.062,0-6.11,0.813-8.884,2.347   l-0.545-0.878c-0.291-0.469-0.909-0.615-1.377-0.321c-0.469,0.292-0.613,0.908-0.321,1.377l0.551,0.887   c-7.322,5.094-9.903,14.377-5.694,21.149l2.109,3.392c0.001,0.002,0.002,0.003,0.002,0.004l0,0.001   c0.189,0.305,0.516,0.472,0.85,0.472c0.18,0,0.363-0.049,0.527-0.15c0.469-0.292,0.613-0.908,0.322-1.377   c-0.874-1.406-0.441-3.26,0.964-4.133c0.476-0.296,1.022-0.452,1.579-0.452c1.047,0,2.001,0.529,2.552,1.417   c0.291,0.47,0.907,0.612,1.377,0.322c0.305-0.189,0.473-0.517,0.472-0.852c0-0.18-0.049-0.361-0.15-0.525   c-0.873-1.406-0.441-3.259,0.964-4.133c0.477-0.296,1.023-0.453,1.58-0.453c1.046,0,2,0.53,2.551,1.417   c0,0,0.001,0.001,0.001,0.001l10.662,17.155H14.586c-0.552,0-1,0.447-1,1s0.448,1,1,1h40c0.553,0,1-0.447,1-1   S55.139,49.668,54.586,49.668z M25.417,29.433c-1.406-0.545-3.121-0.414-4.456,0.416c-1.386,0.861-2.204,2.294-2.339,3.807   c-1.404-0.543-3.12-0.414-4.456,0.415c-0.956,0.594-1.641,1.46-2.02,2.437l-0.001-0.002c-3.784-6.088-1.147-14.593,5.877-18.96   C20.702,15.88,23.708,15,26.718,15c4.624,0,8.701,2.118,10.907,5.667c-1.062-0.09-2.156,0.164-3.076,0.735   c-1.385,0.861-2.203,2.295-2.338,3.807c-1.403-0.543-3.12-0.414-4.455,0.417C26.37,26.486,25.552,27.92,25.417,29.433z"/></g></svg>