<svg xmlns:x="http://ns.adobe.com/Extensibility/1.0/" xmlns:i="http://ns.adobe.com/AdobeIllustrator/10.0/" xmlns:graph="http://ns.adobe.com/Graphs/1.0/" xmlns="http://www.w3.org/2000/svg" xmlns:xlink="http://www.w3.org/1999/xlink" version="1.1" x="0px" y="0px" viewBox="0 0 64 80" enable-background="new 0 0 64 64" xml:space="preserve"><metadata><sfw xmlns="http://ns.adobe.com/SaveForWeb/1.0/"><slices/><sliceSourceBounds height="16384" width="16389" x="-8165" y="-8160" bottomLeftOrigin="true"/></sfw></metadata><g><g><path d="M51.748,16.069c0.416-0.147,0.801-0.376,1.122-0.697c1.169-1.169,1.169-3.073,0-4.242c-1.133-1.135-3.11-1.133-4.243,0    c-0.326,0.327-0.552,0.713-0.696,1.122c-2.089-1.364-4.527-2.101-7.081-2.101c-3.473,0-6.737,1.353-9.192,3.808l-4.243,4.243    c-4.477,4.478-8.892,7.045-12.111,7.046c-1.384,0-2.511-0.454-3.445-1.389c-0.391-0.391-1.023-0.391-1.414,0s-0.391,1.023,0,1.414    c0.002,0.002,0.005,0.005,0.007,0.007l16.328,16.328c-0.538,0.812-0.829,1.761-0.829,2.757c0,1.336,0.52,2.591,1.464,3.535    s2.2,1.465,3.536,1.465c0.995,0,1.945-0.291,2.756-0.829l5.015,5.015c0.002,0.003,0.005,0.005,0.007,0.007    c0.195,0.195,0.451,0.293,0.707,0.293s0.512-0.098,0.707-0.293c0.391-0.391,0.391-1.023,0-1.414    c-3.648-3.649,0.53-10.429,5.657-15.557l4.242-4.243c2.455-2.456,3.808-5.72,3.808-9.193    C53.849,20.597,53.111,18.159,51.748,16.069z M50.041,12.544c0.189-0.189,0.44-0.293,0.708-0.293c0.267,0,0.518,0.104,0.707,0.293    c0.39,0.39,0.39,1.024,0,1.414c-0.38,0.379-1.037,0.378-1.415,0C49.651,13.568,49.651,12.934,50.041,12.544z M28.829,46.485    c-0.566-0.566-0.878-1.319-0.878-2.121c0-0.455,0.101-0.896,0.292-1.294l4.002,4.002C31.141,47.601,29.718,47.373,28.829,46.485z     M48.627,30.929l-4.242,4.243c-5.045,5.045-7.658,9.795-7.634,13.58L15.246,27.246c0.019,0,0.038,0,0.057,0    c3.801,0,8.605-2.711,13.525-7.632l4.243-4.243c2.077-2.078,4.84-3.222,7.778-3.222c2.938,0,5.7,1.144,7.777,3.222    c2.078,2.078,3.222,4.84,3.222,7.778S50.705,28.852,48.627,30.929z"/><path d="M35.899,18.201c-0.391,0.391-0.391,1.023,0,1.414s1.023,0.391,1.414,0c1.949-1.95,5.122-1.948,7.071,0    c0.195,0.195,0.451,0.293,0.707,0.293s0.512-0.098,0.707-0.293c0.391-0.391,0.391-1.023,0-1.414    C43.071,15.472,38.629,15.47,35.899,18.201z"/></g></g><text x="0" y="79" fill="#000000" font-size="5px" font-weight="bold" font-family="'Helvetica Neue', Helvetica, Arial-Unicode, Arial, Sans-serif">Created by Ralf Schmitzer</text><text x="0" y="84" fill="#000000" font-size="5px" font-weight="bold" font-family="'Helvetica Neue', Helvetica, Arial-Unicode, Arial, Sans-serif">from the Noun Project</text></svg>