<svg xmlns:x="http://ns.adobe.com/Extensibility/1.0/" xmlns:i="http://ns.adobe.com/AdobeIllustrator/10.0/" xmlns:graph="http://ns.adobe.com/Graphs/1.0/" xmlns="http://www.w3.org/2000/svg" xmlns:xlink="http://www.w3.org/1999/xlink" version="1.1" x="0px" y="0px" viewBox="0 0 64 80" enable-background="new 0 0 64 64" xml:space="preserve"><metadata><sfw xmlns="http://ns.adobe.com/SaveForWeb/1.0/"><slices/><sliceSourceBounds height="16384" width="16389" x="-8165" y="-8160" bottomLeftOrigin="true"/></sfw></metadata><g><g><path d="M58.938,53.485c-0.191-0.518-0.763-0.784-1.285-0.59l-4.689,1.736l-5.771-15.587c0.683-1.792,3.172-8.719,2.023-11.817    l-4.86-13.13c-0.092-0.249-0.279-0.451-0.52-0.562c-0.241-0.111-0.517-0.121-0.766-0.029l-9.878,3.658    c0.135-0.509-0.14-1.041-0.646-1.207l-11.405-3.733c-0.251-0.083-0.526-0.062-0.763,0.058c-0.236,0.12-0.416,0.329-0.498,0.581    L15.525,26.17c-1.028,3.139,1.722,9.966,2.474,11.729l-5.171,15.798l-4.752-1.556c-0.526-0.172-1.09,0.115-1.261,0.639    c-0.172,0.525,0.114,1.09,0.639,1.262l11.405,3.732c0.104,0.034,0.208,0.05,0.311,0.05c0.421,0,0.812-0.268,0.95-0.688    c0.172-0.525-0.114-1.09-0.639-1.262l-4.752-1.555l5.171-15.797c1.649-0.979,7.903-4.858,8.931-7.998l3.134-9.573l4.124,11.136    c1.146,3.098,7.543,6.736,9.229,7.65l5.771,15.588l-4.689,1.736c-0.518,0.191-0.782,0.767-0.59,1.285    C45.958,58.751,46.34,59,46.746,59c0.115,0,0.232-0.02,0.348-0.062l5.624-2.082c0.001-0.001,0.002-0.001,0.003-0.001    s0.001-0.001,0.002-0.001l5.625-2.083C58.865,54.579,59.13,54.004,58.938,53.485z M26.93,29.903    c-0.593,1.812-4.507,4.716-7.389,6.5c-1.27-3.142-2.709-7.796-2.115-9.61l4.044-12.355l9.504,3.111L26.93,29.903z M37.963,31.394    l-4.514-12.191l9.378-3.472l4.514,12.192c0.662,1.788-0.599,6.496-1.747,9.685C42.646,35.936,38.625,33.185,37.963,31.394z"/><circle cx="23" cy="29" r="1"/><circle cx="21" cy="25" r="1"/><circle cx="25" cy="23" r="1"/><circle cx="41" cy="25" r="1"/><circle cx="41" cy="31" r="1"/><circle cx="45" cy="29" r="1"/><path d="M32,9c0.552,0,1-0.448,1-1V6c0-0.552-0.448-1-1-1s-1,0.448-1,1v2C31,8.552,31.448,9,32,9z"/><path d="M35.553,10.895C35.696,10.966,35.849,11,35.999,11c0.367,0,0.72-0.202,0.896-0.553l2-4    c0.247-0.494,0.047-1.095-0.447-1.342c-0.493-0.246-1.094-0.047-1.342,0.447l-2,4C34.858,10.047,35.059,10.647,35.553,10.895z"/><path d="M27.105,10.447C27.281,10.798,27.634,11,28.001,11c0.15,0,0.303-0.034,0.446-0.105c0.494-0.247,0.694-0.848,0.447-1.342    l-2-4c-0.247-0.494-0.846-0.694-1.342-0.447c-0.494,0.247-0.694,0.848-0.447,1.342L27.105,10.447z"/></g></g><text x="0" y="79" fill="#000000" font-size="5px" font-weight="bold" font-family="'Helvetica Neue', Helvetica, Arial-Unicode, Arial, Sans-serif">Created by Ralf Schmitzer</text><text x="0" y="84" fill="#000000" font-size="5px" font-weight="bold" font-family="'Helvetica Neue', Helvetica, Arial-Unicode, Arial, Sans-serif">from the Noun Project</text></svg>