<svg xmlns="http://www.w3.org/2000/svg" xmlns:xlink="http://www.w3.org/1999/xlink" version="1.1" x="0px" y="0px" viewBox="0 0 64 80" enable-background="new 0 0 64 64" xml:space="preserve"><g><g><path d="M22.2,32h19.6c0.316,0,0.613-0.149,0.803-0.403c0.188-0.254,0.246-0.582,0.155-0.884l-1.8-6C40.831,24.29,40.441,24,40,24    H24c-0.441,0-0.831,0.29-0.958,0.713l-1.8,6c-0.091,0.303-0.033,0.63,0.156,0.884C21.586,31.851,21.884,32,22.2,32z M24.744,26    h14.512l1.2,4H23.544L24.744,26z"/><path d="M56,18H8c-0.552,0-1,0.448-1,1v6c0,0.552,0.448,1,1,1h6.656L9.042,44.713c-0.091,0.303-0.033,0.631,0.156,0.884    C9.386,45.851,9.684,46,10,46h8c0.441,0,0.831-0.29,0.958-0.713L21.144,38h21.711l2.187,7.287C45.169,45.71,45.559,46,46,46h8    c0.316,0,0.613-0.149,0.803-0.403c0.188-0.253,0.246-0.581,0.155-0.884L49.344,26H56c0.553,0,1-0.448,1-1v-6    C57,18.448,56.553,18,56,18z M55,24h-7c-0.316,0-0.613,0.149-0.803,0.403c-0.188,0.254-0.246,0.582-0.155,0.884L52.656,44h-5.912    l-2.187-7.287C44.431,36.29,44.041,36,43.6,36H20.4c-0.441,0-0.831,0.29-0.958,0.713L17.256,44h-5.912l5.614-18.713    c0.091-0.303,0.033-0.63-0.156-0.884C16.614,24.149,16.316,24,16,24H9v-4h46V24z"/></g></g><text x="0" y="79" fill="#000000" font-size="5px" font-weight="bold" font-family="'Helvetica Neue', Helvetica, Arial-Unicode, Arial, Sans-serif">Created by Ralf Schmitzer</text><text x="0" y="84" fill="#000000" font-size="5px" font-weight="bold" font-family="'Helvetica Neue', Helvetica, Arial-Unicode, Arial, Sans-serif">from the Noun Project</text></svg>