<svg xmlns:x="http://ns.adobe.com/Extensibility/1.0/" xmlns:i="http://ns.adobe.com/AdobeIllustrator/10.0/" xmlns:graph="http://ns.adobe.com/Graphs/1.0/" xmlns="http://www.w3.org/2000/svg" xmlns:xlink="http://www.w3.org/1999/xlink" version="1.1" x="0px" y="0px" viewBox="0 0 64 80" enable-background="new 0 0 64 64" xml:space="preserve"><metadata><sfw xmlns="http://ns.adobe.com/SaveForWeb/1.0/"><slices/><sliceSourceBounds height="16384" width="16389" x="-8165" y="-8160" bottomLeftOrigin="true"/></sfw></metadata><g><g><path d="M52,27H12c-0.552,0-1,0.448-1,1s0.448,1,1,1h3.051c0.324,5.532,3.291,10.359,7.669,13.226l-7.588,13.278    c-0.274,0.479-0.107,1.09,0.372,1.364C15.66,56.958,15.831,57,15.999,57c0.347,0,0.685-0.181,0.869-0.504l7.59-13.283    c1.993,0.992,4.203,1.6,6.542,1.736V56c0,0.553,0.448,1,1,1s1-0.447,1-1V44.949c2.339-0.137,4.549-0.744,6.541-1.736l7.591,13.283    C47.316,56.819,47.653,57,48.001,57c0.168,0,0.339-0.042,0.495-0.132c0.479-0.274,0.646-0.885,0.372-1.364L41.28,42.226    c4.378-2.866,7.345-7.693,7.669-13.226H52c0.553,0,1-0.448,1-1S52.553,27,52,27z M32,43c-7.934,0-14.431-6.195-14.949-14h29.898    C46.431,36.805,39.934,43,32,43z"/><path d="M18,23h28c0.553,0,1-0.448,1-1c0-8.271-6.729-15-15-15c-8.271,0-15,6.729-15,15C17,22.552,17.448,23,18,23z M32,9    c6.832,0,12.449,5.297,12.962,12H19.038C19.55,14.297,25.168,9,32,9z"/></g></g><text x="0" y="79" fill="#000000" font-size="5px" font-weight="bold" font-family="'Helvetica Neue', Helvetica, Arial-Unicode, Arial, Sans-serif">Created by Ralf Schmitzer</text><text x="0" y="84" fill="#000000" font-size="5px" font-weight="bold" font-family="'Helvetica Neue', Helvetica, Arial-Unicode, Arial, Sans-serif">from the Noun Project</text></svg>