<svg xmlns:x="http://ns.adobe.com/Extensibility/1.0/" xmlns:i="http://ns.adobe.com/AdobeIllustrator/10.0/" xmlns:graph="http://ns.adobe.com/Graphs/1.0/" xmlns="http://www.w3.org/2000/svg" xmlns:xlink="http://www.w3.org/1999/xlink" version="1.1" x="0px" y="0px" viewBox="0 0 64 80" enable-background="new 0 0 64 64" xml:space="preserve"><metadata><sfw xmlns="http://ns.adobe.com/SaveForWeb/1.0/"><slices/><sliceSourceBounds height="16384" width="16389" x="-8165" y="-8160" bottomLeftOrigin="true"/></sfw></metadata><g><path d="M54.021,19.979c-5.916-5.917-15.317-6.615-22.031-1.705C29.181,16.225,25.735,15,22,15c-9.374,0-17,7.626-17,17   s7.626,17,17,17c3.592,0,7.107-1.164,9.999-3.271c2.994,2.188,6.496,3.282,9.995,3.282c4.368,0,8.719-1.683,12.027-4.991   C60.648,37.393,60.648,26.607,54.021,19.979z M7,32c0-8.271,6.729-15,15-15s15,6.729,15,15c0,2.674-0.705,5.263-2.04,7.549   c-0.088-0.082-0.181-0.156-0.267-0.242c-0.615-0.615-1.138-1.298-1.567-2.027c0.778-1.643,1.208-3.45,1.208-5.279   c0-2.015-0.496-3.914-1.356-5.595c-0.039-0.165-0.117-0.313-0.233-0.441c-2.117-3.753-6.137-6.297-10.745-6.297   c-6.801,0-12.333,5.533-12.333,12.333S15.199,44.333,22,44.333c2.355,0,4.618-0.665,6.588-1.914   c0.43,0.555,0.885,1.095,1.391,1.602c0.139,0.139,0.294,0.259,0.438,0.393C27.934,46.107,25.049,47,22,47C13.729,47,7,40.271,7,32z    M36.538,23.233c4.062-2.548,9.322-1.988,12.77,1.459c4.028,4.029,4.028,10.584-0.001,14.614c-1.952,1.952-4.547,3.027-7.307,3.027   c-1.958,0-3.827-0.551-5.448-1.562C38.15,38.128,39,35.116,39,32C39,28.791,38.09,25.797,36.538,23.233z M32.334,32   c0,0.864-0.112,1.725-0.325,2.558c-0.426-1.673-0.444-3.443-0.014-5.137C32.208,30.247,32.334,31.108,32.334,32z M27.448,23.235   c-3.28,5.441-3.186,12.224,0.007,17.537c-1.635,1.019-3.507,1.561-5.455,1.561c-5.698,0-10.333-4.636-10.333-10.333   c0-5.698,4.636-10.333,10.333-10.333C24,21.667,25.864,22.248,27.448,23.235z M52.606,42.606   c-5.421,5.419-14.011,5.896-19.981,1.104c-0.427-0.342-0.841-0.714-1.232-1.104c-4.818-4.819-5.742-12.323-2.35-18.146   c0.708,0.661,1.319,1.418,1.819,2.254c-2.206,4.658-1.258,10.334,2.417,14.007c2.329,2.33,5.426,3.613,8.721,3.613   c3.294,0,6.391-1.283,8.721-3.613c4.809-4.809,4.81-12.633,0.001-17.442c-4.134-4.133-10.454-4.788-15.314-1.693   c-0.554-0.711-1.162-1.375-1.819-1.989c5.892-4.002,13.92-3.301,19.019,1.797C58.455,27.242,58.455,36.758,52.606,42.606z"/></g></svg>