<?xml version="1.0" encoding="UTF-8" standalone="no"?>
<svg width="400px" height="77px" viewBox="0 0 400 77" version="1.1" xmlns="http://www.w3.org/2000/svg" xmlns:xlink="http://www.w3.org/1999/xlink">
    <!-- Generator: Sketch 43.2 (39069) - http://www.bohemiancoding.com/sketch -->
    <title>Artboard</title>
    <desc>Created with Sketch.</desc>
    <defs></defs>
    <g id="Page-1" stroke="none" stroke-width="1" fill="none" fill-rule="evenodd">
        <g id="Artboard" fill="#000000">
            <path d="M67.98,8.24 C69.1000056,8.24 69.66,8.639996 69.66,9.44 C69.66,12.6933496 65.1800448,21.9999232 56.22,37.36 C56.5933352,38.8000072 57.179996,40.4799904 57.98,42.4 L81.82,24.24 C90.9400456,17.306632 97.099984,12.8533432 100.3,10.88 C107.446702,6.613312 114.459966,4.48 121.34,4.48 C123.313343,4.48 125.126658,4.7999968 126.78,5.44 C127.793338,5.8133352 128.3,6.5066616 128.3,7.52 C128.3,8.5333384 128.033336,9.04 127.5,9.04 C127.179998,9.04 126.846668,8.8266688 126.5,8.4 C126.153332,7.9733312 125.140008,7.76 123.46,7.76 C121.779992,7.76 119.046686,8.1866624 115.26,9.04 C109.286637,10.37334 102.513371,13.3599768 94.94,18 C90.1933096,20.933348 83.8467064,25.4399696 75.9,31.52 C67.9532936,37.6000304 62.2200176,41.7866552 58.7,44.08 C61.4200136,49.7866952 64.913312,55.0933088 69.18,60 C75.7400328,67.6267048 81.6333072,71.44 86.86,71.44 C89.4200128,71.44 90.7,70.4533432 90.7,68.48 C90.7,68.1066648 90.6600004,67.7333352 90.58,67.36 C90.4999996,66.9866648 90.593332,66.533336 90.86,66 C91.126668,65.466664 91.4466648,65.2 91.82,65.2 C92.5133368,65.2 92.9666656,66.0266584 93.18,67.68 C93.2333336,67.946668 93.26,68.213332 93.26,68.48 C93.26,70.1866752 92.393342,71.5866612 90.66,72.68 C88.926658,73.7733388 86.8733452,74.32 84.5,74.32 C82.1266548,74.32 80.140008,73.9466704 78.54,73.2 C74.3266456,71.1199896 70.0733548,67.4666928 65.78,62.24 C61.4866452,57.0133072 58.1933448,51.5200288 55.9,45.76 C52.966652,47.4666752 50.5400096,48.3999992 48.62,48.56 C45.0466488,53.2000232 40.6466928,57.7066448 35.42,62.08 C32.5933192,64.480012 29.5266832,66.413326 26.22,67.88 C22.9133168,69.346674 19.7400152,70.08 16.7,70.08 C12.3799784,70.08 9.0466784,69.0000108 6.7,66.84 C4.3533216,64.6799892 3.18,61.3866888 3.18,56.96 C3.18,54.7733224 3.6066624,52.746676 4.46,50.88 C7.1800136,44.8533032 11.2866392,40.6933448 16.78,38.4 C19.8200152,37.06666 22.8466516,36.4 25.86,36.4 C28.8733484,36.4 30.8866616,37.3866568 31.9,39.36 C32.2733352,40.0533368 32.46,40.7866628 32.46,41.56 C32.46,42.3333372 32.3533344,42.8266656 32.14,43.04 C31.9266656,43.2533344 31.6333352,43.0666696 31.26,42.48 C29.9799936,40.1333216 28.6200072,38.826668 27.18,38.56 C26.2199952,38.4533328 25.5266688,38.4 25.1,38.4 C20.9399792,38.4 17.0466848,40.133316 13.42,43.6 C8.7266432,48.133356 6.38,53.0399736 6.38,58.32 C6.38,64.0800288 9.6333008,67.3333296 16.14,68.08 L16.78,68.08 C19.1266784,68.08 22.1399816,67.0400104 25.82,64.96 C31.7933632,61.5466496 38.1666328,55.6800416 44.94,47.36 C43.7133272,46.2399944 43.1,44.5866776 43.1,42.4 C43.1,40.2133224 43.9133252,38.1466764 45.54,36.2 C47.1666748,34.2533236 49.3933192,33.28 52.22,33.28 C53.020004,33.28 53.7666632,33.3599992 54.46,33.52 C57.12668,29.0399776 59.7133208,24.200026 62.22,19 C64.7266792,13.799974 65.98,10.800004 65.98,10 C65.98,9.8933328 65.8200016,9.84 65.5,9.84 C65.1799984,9.84 63.3266836,10.6799916 59.94,12.36 C56.5533164,14.0400084 54.1400072,15.3599952 52.7,16.32 C51.2599928,17.2800048 49.5000104,18.7866564 47.42,20.84 C45.3399896,22.8933436 44.3,24.5599936 44.3,25.84 C44.3,26.4266696 44.7133292,27.0133304 45.54,27.6 C46.3666708,28.1866696 47.8733224,28.48 50.06,28.48 C50.326668,28.5866672 50.46,28.7333324 50.46,28.92 C50.46,29.1066676 49.726674,29.3199988 48.26,29.56 C46.793326,29.8000012 45.6333376,29.92 44.78,29.92 C42.8599904,29.92 41.9,29.120008 41.9,27.52 C41.9,25.653324 43.0466552,23.4133464 45.34,20.8 C47.6333448,18.1866536 50.1399864,16.1333408 52.86,14.64 C60.8067064,10.373312 65.846656,8.24 67.98,8.24 Z M55.26,44.08 C54.8333312,43.013328 54.486668,41.946672 54.22,40.88 C53.153328,42.4266744 52.086672,43.9466592 51.02,45.44 C51.553336,45.44 52.0333312,45.4000004 52.46,45.32 C52.8866688,45.2399996 53.8199928,44.8266704 55.26,44.08 Z M52.22,37.2 C51.5799968,36.933332 50.8733372,36.8 50.1,36.8 C49.3266628,36.8 48.5533372,37.2799952 47.78,38.24 C47.0066628,39.2000048 46.62,40.2266612 46.62,41.32 C46.62,42.4133388 46.9133304,43.3333296 47.5,44.08 C50.1133464,40.346648 51.686664,38.0533376 52.22,37.2 Z M102.94,40.08 L104.06,39.84 C104.64667,39.84 105.206664,40.0799976 105.74,40.56 C106.273336,41.0400024 106.54,41.413332 106.54,41.68 C106.54,41.946668 104.886683,44.5199756 101.58,49.4 C98.2733168,54.2800244 96.62,57.6799904 96.62,59.6 C96.62,59.7600008 96.6466664,59.9199992 96.7,60.08 C96.966668,61.3066728 97.5533288,61.92 98.46,61.92 C101.233347,61.92 106.299963,57.3333792 113.66,48.16 C113.820001,47.9466656 114.006666,47.84 114.22,47.84 C114.433334,47.84 114.54,48.039998 114.54,48.44 C114.54,48.840002 114.300002,49.3599968 113.82,50 C106.993299,59.1200456 101.793351,63.68 98.22,63.68 C97.7399976,63.68 97.2866688,63.6000008 96.86,63.44 C94.5133216,62.5333288 93.34,60.7733464 93.34,58.16 C93.34,57.2533288 93.4466656,56.3466712 93.66,55.44 L88.7,60.24 C85.5533176,63.0133472 83.2733404,64.4 81.86,64.4 C80.4466596,64.4 79.1000064,63.9466712 77.82,63.04 C76.3799928,61.973328 75.66,60.5600088 75.66,58.8 C75.66,54.9066472 78.3799728,50.2533604 83.82,44.84 C89.2600272,39.4266396 94.246644,36.72 98.78,36.72 C100.540009,36.72 101.71333,37.3333272 102.3,38.56 C102.460001,38.9866688 102.593333,39.3466652 102.7,39.64 C102.806667,39.9333348 102.886666,40.08 102.94,40.08 Z M79.02,59.76 C79.02,61.6800096 79.68666,62.64 81.02,62.64 C84.1133488,62.64 88.32664,59.2533672 93.66,52.48 L102.14,40.8 C101.713331,40.0533296 101.020005,39.68 100.06,39.68 C96.8066504,39.68 92.4866936,42.1999748 87.1,47.24 C81.7133064,52.2800252 79.02,56.4533168 79.02,59.76 Z M130.14,38.24 L141.66,38.08 C141.820001,38.1866672 141.9,38.2666664 141.9,38.32 C141.9,38.8000024 138.580033,39.4666624 131.94,40.32 C125.299967,41.1733376 121.713336,41.6799992 121.18,41.84 C120.166662,42.7466712 118.300014,45.4533108 115.58,49.96 C112.859986,54.4666892 111.5,57.7599896 111.5,59.84 C111.5,61.8133432 112.859986,62.8 115.58,62.8 C116.860006,62.8 118.53999,62.400004 120.62,61.6 C122.70001,60.799996 124.299994,60.0533368 125.42,59.36 C128.406682,57.493324 131.60665,54.7466848 135.02,51.12 C135.76667,50.3733296 136.273332,50 136.54,50 C136.700001,50 136.78,50.1599984 136.78,50.48 C136.78,50.8000016 136.380004,51.4399952 135.58,52.4 C132.806653,55.8133504 129.686684,58.5599896 126.22,60.64 C122.059979,63.2000128 118.086686,64.48 114.3,64.48 C112.646658,64.48 111.300005,64.1200036 110.26,63.4 C109.219995,62.6799964 108.7,61.2266776 108.7,59.04 C108.7,56.8533224 109.65999,53.8533524 111.58,50.04 C113.50001,46.2266476 114.966662,43.386676 115.98,41.52 C115.23333,41.6800008 114.593336,41.76 114.06,41.76 C112.513326,41.76 111.74,41.1466728 111.74,39.92 C111.74,39.0133288 112.379994,38.3733352 113.66,38 C113.820001,38 114.059998,37.9733336 114.38,37.92 L119.02,37.92 C119.980005,36.6933272 121.073327,35.280008 122.3,33.68 C123.793341,31.7599904 124.806664,30.8 125.34,30.8 C125.873336,30.8 126.539996,31.0133312 127.34,31.44 C128.140004,31.8666688 128.54,32.3733304 128.54,32.96 C128.54,33.5466696 127.260013,35.2799856 124.7,38.16 C126.086674,38.2133336 127.899989,38.24 130.14,38.24 Z M137.1,65.04 C136.51333,65.04 135.980002,64.9600008 135.5,64.8 C132.08665,63.8399952 130.38,61.9200144 130.38,59.04 C130.38,55.306648 132.726643,50.9866912 137.42,46.08 C142.113357,41.1733088 146.326648,38.72 150.06,38.72 C151.286673,38.72 152.286663,39.05333 153.06,39.72 C153.833337,40.38667 154.22,41.1999952 154.22,42.16 C154.22,45.1466816 151.966689,47.9999864 147.46,50.72 C142.953311,53.4400136 139.286681,54.8 136.46,54.8 C136.033331,54.8 135.660002,54.7466672 135.34,54.64 C134.539996,56.0800072 134.14,57.599992 134.14,59.2 C134.14,61.9733472 135.459987,63.36 138.1,63.36 C140.740013,63.36 144.166646,61.5733512 148.38,58 C151.63335,55.3866536 154.406655,52.613348 156.7,49.68 C157.180002,49.0399968 157.593332,48.72 157.94,48.72 C158.286668,48.72 158.46,48.8799984 158.46,49.2 C158.46,49.5200016 158.246669,49.9733304 157.82,50.56 C154.939986,54.3466856 151.473354,57.706652 147.42,60.64 C143.366646,63.573348 139.926681,65.04 137.1,65.04 Z M152.22,42 C152.22,41.3599968 151.540007,41.04 150.18,41.04 C148.819993,41.04 146.886679,42.0799896 144.38,44.16 C141.019983,46.9333472 138.406676,49.8399848 136.54,52.88 C136.860002,52.9866672 137.206665,53.04 137.58,53.04 C139.606677,53.04 142.313316,51.9600108 145.7,49.8 C149.086684,47.6399892 151.206662,45.2800128 152.06,42.72 C152.166667,42.453332 152.22,42.2133344 152.22,42 Z" id="Kate"></path>
            <path d="M270.54,41.76 C267.339984,41.76 264.646678,41.026674 262.46,39.56 C260.273322,38.093326 259.18,36.2400112 259.18,34 C259.18,31.1733192 261.019982,28.3466808 264.7,25.52 C265.340003,25.0399976 265.819998,24.8 266.14,24.8 C266.460002,24.8 266.62,24.9066656 266.62,25.12 C266.62,25.653336 266.193338,26.0799984 265.34,26.4 C262.353318,28.800012 260.86,31.2266544 260.86,33.68 C260.86,35.4400088 261.659992,36.919994 263.26,38.12 C264.860008,39.320006 266.859988,39.92 269.26,39.92 C274.486693,39.92 279.419977,37.4133584 284.06,32.4 C286.460012,29.7866536 287.66,26.7733504 287.66,23.36 C287.66,19.9466496 286.380013,17.4133416 283.82,15.76 C281.686656,14.2666592 278.806685,13.52 275.18,13.52 C269.953307,13.52 264.700026,14.8266536 259.42,17.44 C252.913301,20.5866824 247.03336,25.4799668 241.78,32.12 C236.52664,38.7600332 233.9,45.146636 233.9,51.28 C233.9,56.1333576 235.553317,59.8799868 238.86,62.52 C242.166683,65.1600132 246.273309,66.48 251.18,66.48 C256.780028,66.48 262.273306,65.1200136 267.66,62.4 C271.766687,60.266656 275.313318,57.5466832 278.3,54.24 C279.153338,53.2799952 279.819998,52.8 280.3,52.8 C280.620002,52.8 280.78,53.0799972 280.78,53.64 C280.78,54.2000028 280.48667,54.7733304 279.9,55.36 C277.073319,58.3466816 272.99336,61.2266528 267.66,64 C261.099967,67.466684 254.500033,69.2 247.86,69.2 C241.219967,69.2 236.27335,67.0133552 233.02,62.64 C230.833322,59.7599856 229.74,56.32002 229.74,52.32 C229.74,50.5599912 229.953331,48.6666768 230.38,46.64 C231.820007,39.8132992 235.606636,33.1733656 241.74,26.72 C246.166689,22.0799768 251.41997,18.4666796 257.5,15.88 C263.58003,13.2933204 269.339973,12 274.78,12 C277.660014,12 280.166656,12.3466632 282.3,13.04 C288.113362,14.8533424 291.02,18.5066392 291.02,24 C291.02,27.3600168 290.033343,30.2666544 288.06,32.72 C283.153309,38.7466968 277.313367,41.76 270.54,41.76 Z M304.3,63.68 C301.153318,63.68 299.58,61.8400184 299.58,58.16 C299.58,56.0799896 300.313326,53.773346 301.78,51.24 C303.246674,48.706654 305.046656,45.7333504 307.18,42.32 C300.353299,45.7333504 294.166694,50.7733 288.62,57.44 C285.526651,62.0800232 283.713336,64.4 283.18,64.4 C281.633326,64.4 280.86,63.9466712 280.86,63.04 C280.86,62.5599976 281.179997,61.7066728 281.82,60.48 C286.993359,51.2532872 290.91332,44.506688 293.58,40.24 C299.926698,30.0532824 304.406654,24.5333376 307.02,23.68 C307.126667,23.6266664 307.233333,23.6 307.34,23.6 C308.033337,23.6 308.513332,24.1599944 308.78,25.28 C308.619999,26.4000056 305.846694,30.4532984 300.46,37.44 C294.859972,44.5333688 291.68667,49.1733224 290.94,51.36 C292.913343,49.9199928 296.353309,47.4933504 301.26,44.08 C306.540026,40.3999816 310.033325,38.56 311.74,38.56 C313.446675,38.56 314.3,39.22666 314.3,40.56 C314.3,40.7733344 314.286667,40.9199996 314.26,41 C314.233333,41.0800004 312.380018,43.5999752 308.7,48.56 C305.019982,53.5200248 303.18,57.1733216 303.18,59.52 C303.18,60.7466728 303.633329,61.36 304.54,61.36 C307.420014,61.2533328 311.739971,57.7867008 317.5,50.96 C317.980002,50.4799976 318.339999,50.24 318.58,50.24 C318.820001,50.24 318.94,50.3999984 318.94,50.72 C318.94,51.786672 316.300026,54.6666432 311.02,59.36 C307.713317,62.2400144 305.473339,63.68 304.3,63.68 Z M331.74,64.4 C327.73998,64.4 325.74,62.1866888 325.74,57.76 C325.74,55.5199888 326.326661,53.06668 327.5,50.4 C328.673339,47.73332 329.953326,45.4933424 331.34,43.68 C331.073332,43.7333336 330.726669,43.76 330.3,43.76 C329.019994,43.76 327.953338,42.8533424 327.1,41.04 L321.18,48.72 C317.873317,52.8266872 315.953336,54.88 315.42,54.88 C315.153332,54.88 315.02,54.7733344 315.02,54.56 C315.02,54.026664 315.473329,53.2533384 316.38,52.24 C321.020023,46.8533064 324.29999,42.293352 326.22,38.56 C327.446673,33.9199768 328.993324,31.6 330.86,31.6 C332.086673,31.6 332.7,32.133328 332.7,33.2 C332.7,34.266672 332.03334,35.6266584 330.7,37.28 L328.78,39.84 C328.78,40.9600056 329.606658,41.52 331.26,41.52 C332.220005,41.52 333.286661,41.1733368 334.46,40.48 L336.54,39.2 C336.646667,39.1466664 336.913331,39.12 337.34,39.12 C337.766669,39.12 338.219998,39.386664 338.7,39.92 C339.180002,40.453336 339.340001,40.9333312 339.18,41.36 L333.66,48.32 C330.24665,52.6933552 328.54,56.146654 328.54,58.68 C328.54,61.213346 329.713322,62.48 332.06,62.48 C334.513346,62.48 337.526649,61.1733464 341.1,58.56 C343.233344,57.0133256 345.179991,55.2800096 346.94,53.36 C348.593342,51.4399904 349.499999,50.48 349.66,50.48 C350.033335,50.48 350.22,50.679998 350.22,51.08 C350.22,51.480002 349.980002,51.946664 349.5,52.48 L346.94,55.36 C345.499993,56.8533408 343.900009,58.2933264 342.14,59.68 C337.926646,62.8266824 334.460014,64.4 331.74,64.4 Z M366.58,32.12 C367.300004,32.6266692 367.66,33.2266632 367.66,33.92 C367.66,34.6133368 367.32667,35.2133308 366.66,35.72 C365.99333,36.2266692 365.260004,36.48 364.46,36.48 C363.659996,36.48 362.92667,36.1866696 362.26,35.6 C361.59333,35.0133304 361.26,34.3466704 361.26,33.6 C361.26,32.1066592 362.273323,31.36 364.3,31.36 C365.100004,31.36 365.859996,31.6133308 366.58,32.12 Z M349.82,64.88 C347.099986,64.88 345.74,63.1200176 345.74,59.6 C345.74,56.7199856 347.313318,52.7333588 350.46,47.64 C353.606682,42.5466412 356.13999,39.9733336 358.06,39.92 C358.593336,39.92 359.19333,40.1333312 359.86,40.56 C360.52667,40.9866688 360.86,41.4133312 360.86,41.84 C360.593332,42.2133352 360.273335,42.6266644 359.9,43.08 C359.526665,43.5333356 359.126669,44.026664 358.7,44.56 C358.273331,45.093336 357.68667,45.8533284 356.94,46.84 C356.19333,47.8266716 355.473337,48.7733288 354.78,49.68 C350.77998,54.8533592 348.78,58.4133236 348.78,60.36 C348.78,62.3066764 349.44666,63.28 350.78,63.28 C351.900006,63.28 353.41999,62.6666728 355.34,61.44 C359.820022,58.6666528 363.366654,55.6266832 365.98,52.32 C366.940005,51.0933272 367.593332,50.48 367.94,50.48 C368.286668,50.48 368.46,50.6933312 368.46,51.12 C368.46,51.5466688 367.846673,52.3999936 366.62,53.68 C365.393327,54.9600064 364.420004,55.9733296 363.7,56.72 C362.979996,57.4666704 362.486668,57.9599988 362.22,58.2 C361.953332,58.4400012 361.460004,58.89333 360.74,59.56 C360.019996,60.22667 359.473335,60.693332 359.1,60.96 C358.726665,61.226668 358.193337,61.626664 357.5,62.16 C356.806663,62.693336 356.193336,63.0799988 355.66,63.32 C355.126664,63.5600012 354.513337,63.8399984 353.82,64.16 C352.699994,64.6400024 351.366674,64.88 349.82,64.88 Z M379.74,62.8 C378.193326,63.7066712 376.286678,64.16 374.02,64.16 C371.753322,64.16 370.020006,63.4133408 368.82,61.92 C367.619994,60.4266592 366.593338,58.0533496 365.74,54.8 C364.779995,55.7600048 364.113335,56.24 363.74,56.24 C363.473332,56.24 363.34,56.0533352 363.34,55.68 C363.34,55.3066648 363.473332,54.986668 363.74,54.72 C365.500009,52.5333224 368.486646,49.3866872 372.7,45.28 L382.78,35.84 C385.660014,33.1199864 387.366664,31.76 387.9,31.76 C389.606675,31.76 390.46,32.3999936 390.46,33.68 C390.46,34.3200032 390.206669,34.9466636 389.7,35.56 C389.193331,36.1733364 388.820001,36.6533316 388.58,37 C388.339999,37.3466684 388.086668,37.6799984 387.82,38 C386.859995,39.6533416 385.886672,43.0666408 384.9,48.24 C383.913328,53.4133592 383.153336,57.0133232 382.62,59.04 C387.046689,58.9866664 391.606643,56.1066952 396.3,50.4 C396.833336,49.866664 397.233332,49.6 397.5,49.6 C397.766668,49.6 397.9,49.7733316 397.9,50.12 C397.9,50.4666684 397.660002,50.9333304 397.18,51.52 C394.086651,55.1466848 391.20668,57.6799928 388.54,59.12 C386.939992,59.920004 384.860013,60.586664 382.3,61.12 L379.74,62.8 Z M368.94,53.92 C368.94,55.7333424 369.539994,57.2133276 370.74,58.36 C371.940006,59.5066724 373.286659,60.08 374.78,60.08 C376.273341,60.08 377.419996,59.7866696 378.22,59.2 C379.286672,58.6133304 380.339995,56.1600216 381.38,51.84 C382.420005,47.5199784 383.046666,43.7066832 383.26,40.4 L383.58,37.68 C380.646652,39.8666776 377.51335,42.693316 374.18,46.16 C370.84665,49.626684 369.126667,51.9199944 369.02,53.04 C368.966666,53.3600016 368.94,53.653332 368.94,53.92 Z" id="Chris"></path>
            <path d="M213.81275,30.808 C211.35775,28.353 208.09275,27 204.62075,27 C201.14875,27 197.88375,28.352 195.42875,30.808 L193.30675,32.929 L191.18575,30.808 C188.72975,28.352 185.46575,27 181.99375,27 C178.52075,27 175.25675,28.352 172.80175,30.808 C167.73275,35.877 167.73275,44.124 172.80175,49.193 L192.60075,68.991 C192.79575,69.186 193.05175,69.284 193.30775,69.284 C193.56375,69.284 193.81975,69.186 194.01475,68.991 L213.81375,49.193 C216.26875,46.737 217.62175,43.473 217.62175,40 C217.62175,36.527 216.26775,33.263 213.81275,30.808 Z" id="Path"></path>
        </g>
    </g>
</svg>