<?xml version="1.0" encoding="UTF-8" standalone="no"?>
<svg width="400px" height="77px" viewBox="0 0 400 77" version="1.1" xmlns="http://www.w3.org/2000/svg" xmlns:xlink="http://www.w3.org/1999/xlink">
    <!-- Generator: Sketch 43.2 (39069) - http://www.bohemiancoding.com/sketch -->
    <title>Artboard</title>
    <desc>Created with Sketch.</desc>
    <defs></defs>
    <g id="Page-1" stroke="none" stroke-width="1" fill="none" fill-rule="evenodd">
        <g id="Artboard" fill="#000000">
            <path d="M350.136204,49.2848949 C350.82897,47.8551196 351.690235,46.3068227 352.72,44.64 C355.866682,39.5466412 358.39999,36.9733336 360.32,36.92 C360.853336,36.92 361.45333,37.1333312 362.12,37.56 C362.78667,37.9866688 363.12,38.4133312 363.12,38.84 C362.853332,39.2133352 362.533335,39.6266644 362.16,40.08 C361.786665,40.5333356 361.386669,41.026664 360.96,41.56 C360.533331,42.093336 359.94667,42.8533284 359.2,43.84 C358.45333,44.8266716 357.733337,45.7733288 357.04,46.68 C353.03998,51.8533592 351.04,55.4133236 351.04,57.36 C351.04,59.3066764 351.70666,60.28 353.04,60.28 C354.160006,60.28 355.67999,59.6666728 357.6,58.44 C360.766066,56.4800542 363.465964,54.3869477 365.69973,52.1606482 C365.766396,52.0003964 365.866486,51.8535141 366,51.72 C367.760009,49.5333224 370.746646,46.3866872 374.96,42.28 L385.04,32.84 C387.920014,30.1199864 389.626664,28.76 390.16,28.76 C391.866675,28.76 392.72,29.3999936 392.72,30.68 C392.72,31.3200032 392.466669,31.9466636 391.96,32.56 C391.453331,33.1733364 391.080001,33.6533316 390.84,34 C390.599999,34.3466684 390.346668,34.6799984 390.08,35 C389.119995,36.6533416 388.146672,40.0666408 387.16,45.24 C386.173328,50.4133592 385.413336,54.0133232 384.88,56.04 C389.306689,55.9866664 393.866643,53.1066952 398.56,47.4 C399.093336,46.866664 399.493332,46.6 399.76,46.6 C400.026668,46.6 400.16,46.7733316 400.16,47.12 C400.16,47.4666684 399.920002,47.9333304 399.44,48.52 C396.346651,52.1466848 393.46668,54.6799928 390.8,56.12 C389.199992,56.920004 387.120013,57.586664 384.56,58.12 L382,59.8 C380.453326,60.7066712 378.546678,61.16 376.28,61.16 C374.013322,61.16 372.280006,60.4133408 371.08,58.92 C369.879994,57.4266592 368.853338,55.0533496 368,51.8 C367.502653,52.2973474 367.084037,52.665863 366.744151,52.905549 C366.455893,53.2053212 366.19451,53.4768045 365.96,53.72 C365.239996,54.4666704 364.746668,54.9599988 364.48,55.2 C364.213332,55.4400012 363.720004,55.89333 363,56.56 C362.279996,57.22667 361.733335,57.693332 361.36,57.96 C360.986665,58.226668 360.453337,58.626664 359.76,59.16 C359.066663,59.693336 358.453336,60.0799988 357.92,60.32 C357.386664,60.5600012 356.773337,60.8399984 356.08,61.16 C354.959994,61.6400024 353.626674,61.88 352.08,61.88 C349.359986,61.88 348,60.1200176 348,56.6 C348,55.5249744 348.219212,54.2957633 348.657639,52.9123603 C347.361248,54.2091847 345.942046,55.4650549 344.4,56.68 C340.186646,59.8266824 336.720014,61.4 334,61.4 C329.99998,61.4 328,59.1866888 328,54.76 C328,52.5199888 328.586661,50.06668 329.76,47.4 C330.933339,44.73332 332.213326,42.4933424 333.6,40.68 C333.333332,40.7333336 332.986669,40.76 332.56,40.76 C331.279994,40.76 330.213338,39.8533424 329.36,38.04 L323.44,45.72 C321.861583,47.680292 320.599133,49.1727127 319.652644,50.1972688 C318.350403,51.6869233 316.226193,53.741162 313.28,56.36 C309.973317,59.2400144 307.733339,60.68 306.56,60.68 C303.413318,60.68 301.84,58.8400184 301.84,55.16 C301.84,53.0799896 302.573326,50.773346 304.04,48.24 C305.506674,45.706654 307.306656,42.7333504 309.44,39.32 C302.613299,42.7333504 296.426694,47.7733 290.88,54.44 C287.786651,59.0800232 285.973336,61.4 285.44,61.4 C283.893326,61.4 283.12,60.9466712 283.12,60.04 C283.12,59.5599976 283.439997,58.7066728 284.08,57.48 C289.253359,48.2532872 293.17332,41.506688 295.84,37.24 C302.186698,27.0532824 306.666654,21.5333376 309.28,20.68 C309.386667,20.6266664 309.493333,20.6 309.6,20.6 C310.293337,20.6 310.773332,21.1599944 311.04,22.28 C310.879999,23.4000056 308.106694,27.4532984 302.72,34.44 C297.119972,41.5333688 293.94667,46.1733224 293.2,48.36 C295.173343,46.9199928 298.613309,44.4933504 303.52,41.08 C308.800026,37.3999816 312.293325,35.56 314,35.56 C315.706675,35.56 316.56,36.22666 316.56,37.56 C316.56,37.7733344 316.546667,37.9199996 316.52,38 C316.493333,38.0800004 314.640018,40.5999752 310.96,45.56 C307.279982,50.5200248 305.44,54.1733216 305.44,56.52 C305.44,57.7466728 305.893329,58.36 306.8,58.36 C309.401123,58.2636621 313.176813,55.4265883 318.127164,49.8487018 C318.277974,49.6564613 318.448919,49.4535608 318.64,49.24 C323.280023,43.8533064 326.55999,39.293352 328.48,35.56 C329.706673,30.9199768 331.253324,28.6 333.12,28.6 C334.346673,28.6 334.96,29.133328 334.96,30.2 C334.96,31.266672 334.29334,32.6266584 332.96,34.28 L331.04,36.84 C331.04,37.9600056 331.866658,38.52 333.52,38.52 C334.480005,38.52 335.546661,38.1733368 336.72,37.48 L338.8,36.2 C338.906667,36.1466664 339.173331,36.12 339.6,36.12 C340.026669,36.12 340.479998,36.386664 340.96,36.92 C341.440002,37.453336 341.600001,37.9333312 341.44,38.36 L335.92,45.32 C332.50665,49.6933552 330.8,53.146654 330.8,55.68 C330.8,58.213346 331.973322,59.48 334.32,59.48 C336.773346,59.48 339.786649,58.1733464 343.36,55.56 C345.493344,54.0133256 347.439991,52.2800096 349.2,50.36 C349.544483,49.9599553 349.856551,49.6015871 350.136204,49.2848949 Z M272.8,38.76 C269.599984,38.76 266.906678,38.026674 264.72,36.56 C262.533322,35.093326 261.44,33.2400112 261.44,31 C261.44,28.1733192 263.279982,25.3466808 266.96,22.52 C267.600003,22.0399976 268.079998,21.8 268.4,21.8 C268.720002,21.8 268.88,21.9066656 268.88,22.12 C268.88,22.653336 268.453338,23.0799984 267.6,23.4 C264.613318,25.800012 263.12,28.2266544 263.12,30.68 C263.12,32.4400088 263.919992,33.919994 265.52,35.12 C267.120008,36.320006 269.119988,36.92 271.52,36.92 C276.746693,36.92 281.679977,34.4133584 286.32,29.4 C288.720012,26.7866536 289.92,23.7733504 289.92,20.36 C289.92,16.9466496 288.640013,14.4133416 286.08,12.76 C283.946656,11.2666592 281.066685,10.52 277.44,10.52 C272.213307,10.52 266.960026,11.8266536 261.68,14.44 C255.173301,17.5866824 249.29336,22.4799668 244.04,29.12 C238.78664,35.7600332 236.16,42.146636 236.16,48.28 C236.16,53.1333576 237.813317,56.8799868 241.12,59.52 C244.426683,62.1600132 248.533309,63.48 253.44,63.48 C259.040028,63.48 264.533306,62.1200136 269.92,59.4 C274.026687,57.266656 277.573318,54.5466832 280.56,51.24 C281.413338,50.2799952 282.079998,49.8 282.56,49.8 C282.880002,49.8 283.04,50.0799972 283.04,50.64 C283.04,51.2000028 282.74667,51.7733304 282.16,52.36 C279.333319,55.3466816 275.25336,58.2266528 269.92,61 C263.359967,64.466684 256.760033,66.2 250.12,66.2 C243.479967,66.2 238.53335,64.0133552 235.28,59.64 C233.093322,56.7599856 232,53.32002 232,49.32 C232,47.5599912 232.213331,45.6666768 232.64,43.64 C234.080007,36.8132992 237.866636,30.1733656 244,23.72 C248.426689,19.0799768 253.67997,15.4666796 259.76,12.88 C265.84003,10.2933204 271.599973,9 277.04,9 C279.920014,9 282.426656,9.3466632 284.56,10.04 C290.373362,11.8533424 293.28,15.5066392 293.28,21 C293.28,24.3600168 292.293343,27.2666544 290.32,29.72 C285.413309,35.7466968 279.573367,38.76 272.8,38.76 Z M368.84,29.12 C369.560004,29.6266692 369.92,30.2266632 369.92,30.92 C369.92,31.6133368 369.58667,32.2133308 368.92,32.72 C368.25333,33.2266692 367.520004,33.48 366.72,33.48 C365.919996,33.48 365.18667,33.1866696 364.52,32.6 C363.85333,32.0133304 363.52,31.3466704 363.52,30.6 C363.52,29.1066592 364.533323,28.36 366.56,28.36 C367.360004,28.36 368.119996,28.6133308 368.84,29.12 Z M371.2,50.92 C371.2,52.7333424 371.799994,54.2133276 373,55.36 C374.200006,56.5066724 375.546659,57.08 377.04,57.08 C378.533341,57.08 379.679996,56.7866696 380.48,56.2 C381.546672,55.6133304 382.599995,53.1600216 383.64,48.84 C384.680005,44.5199784 385.306666,40.7066832 385.52,37.4 L385.84,34.68 C382.906652,36.8666776 379.77335,39.693316 376.44,43.16 C373.10665,46.626684 371.386667,48.9199944 371.28,50.04 C371.226666,50.3600016 371.2,50.653332 371.2,50.92 Z" id="Chris"></path>
            <path d="M206.435295,29.1613849 C205.04186,27.7679501 203.188677,27 201.218002,27 C199.247328,27 197.394144,27.7673825 196.000709,29.1613849 L194.796282,30.3652445 L193.592423,29.1613849 C192.19842,27.7673825 190.345805,27 188.37513,27 C186.403888,27 184.551272,27.7673825 183.157837,29.1613849 C180.280721,32.0385016 180.280721,36.7194211 183.157837,39.5965377 L194.395563,50.833696 C194.506243,50.9443761 194.651547,51 194.79685,51 C194.942153,51 195.087456,50.9443761 195.198136,50.833696 L206.435862,39.5965377 C207.829297,38.2025352 208.597247,36.3499196 208.597247,34.3786775 C208.597247,32.4074354 207.82873,30.5548198 206.435295,29.1613849 Z" id="Path"></path>
            <path d="M64.8,6.76 C65.9200056,6.76 66.48,7.159996 66.48,7.96 C66.48,11.2133496 62.0000448,20.5199232 53.04,35.88 C53.4133352,37.3200072 53.999996,38.9999904 54.8,40.92 L78.64,22.76 C87.7600456,15.826632 93.919984,11.3733432 97.12,9.4 C104.266702,5.133312 111.279966,3 118.16,3 C120.133343,3 121.946658,3.3199968 123.6,3.96 C124.613338,4.3333352 125.12,5.0266616 125.12,6.04 C125.12,7.0533384 124.853336,7.56 124.32,7.56 C123.999998,7.56 123.666668,7.3466688 123.32,6.92 C122.973332,6.4933312 121.960008,6.28 120.28,6.28 C118.599992,6.28 115.866686,6.7066624 112.08,7.56 C106.106637,8.89334 99.3333712,11.8799768 91.76,16.52 C87.0133096,19.453348 80.6667064,23.9599696 72.72,30.04 C64.7732936,36.1200304 59.0400176,40.3066552 55.52,42.6 C58.2400136,48.3066952 61.733312,53.6133088 66,58.52 C72.5600328,66.1467048 78.4533072,69.96 83.68,69.96 C86.2400128,69.96 87.52,68.9733432 87.52,67 C87.52,66.6266648 87.4800004,66.2533352 87.4,65.88 C87.3199996,65.5066648 87.413332,65.053336 87.68,64.52 C87.946668,63.986664 88.2666648,63.72 88.64,63.72 C89.3333368,63.72 89.7866656,64.5466584 90,66.2 C90.0533336,66.466668 90.08,66.733332 90.08,67 C90.08,68.7066752 89.213342,70.1066612 87.48,71.2 C85.746658,72.2933388 83.6933452,72.84 81.32,72.84 C78.9466548,72.84 76.960008,72.4666704 75.36,71.72 C71.1466456,69.6399896 66.8933548,65.9866928 62.6,60.76 C58.3066452,55.5333072 55.0133448,50.0400288 52.72,44.28 C49.786652,45.9866752 47.3600096,46.9199992 45.44,47.08 C41.8666488,51.7200232 37.4666928,56.2266448 32.24,60.6 C29.4133192,63.000012 26.3466832,64.933326 23.04,66.4 C19.7333168,67.866674 16.5600152,68.6 13.52,68.6 C9.1999784,68.6 5.8666784,67.5200108 3.52,65.36 C1.1733216,63.1999892 0,59.9066888 0,55.48 C0,53.2933224 0.4266624,51.266676 1.28,49.4 C4.0000136,43.3733032 8.1066392,39.2133448 13.6,36.92 C16.6400152,35.58666 19.6666516,34.92 22.68,34.92 C25.6933484,34.92 27.7066616,35.9066568 28.72,37.88 C29.0933352,38.5733368 29.28,39.3066628 29.28,40.08 C29.28,40.8533372 29.1733344,41.3466656 28.96,41.56 C28.7466656,41.7733344 28.4533352,41.5866696 28.08,41 C26.7999936,38.6533216 25.4400072,37.346668 24,37.08 C23.0399952,36.9733328 22.3466688,36.92 21.92,36.92 C17.7599792,36.92 13.8666848,38.653316 10.24,42.12 C5.5466432,46.653356 3.2,51.5599736 3.2,56.84 C3.2,62.6000288 6.4533008,65.8533296 12.96,66.6 L13.6,66.6 C15.9466784,66.6 18.9599816,65.5600104 22.64,63.48 C28.6133632,60.0666496 34.9866328,54.2000416 41.76,45.88 C40.5333272,44.7599944 39.92,43.1066776 39.92,40.92 C39.92,38.7333224 40.7333252,36.6666764 42.36,34.72 C43.9866748,32.7733236 46.2133192,31.8 49.04,31.8 C49.840004,31.8 50.5866632,31.8799992 51.28,32.04 C53.94668,27.5599776 56.5333208,22.720026 59.04,17.52 C61.5466792,12.319974 62.8,9.320004 62.8,8.52 C62.8,8.4133328 62.6400016,8.36 62.32,8.36 C61.9999984,8.36 60.1466836,9.1999916 56.76,10.88 C53.3733164,12.5600084 50.9600072,13.8799952 49.52,14.84 C48.0799928,15.8000048 46.3200104,17.3066564 44.24,19.36 C42.1599896,21.4133436 41.12,23.0799936 41.12,24.36 C41.12,24.9466696 41.5333292,25.5333304 42.36,26.12 C43.1866708,26.7066696 44.6933224,27 46.88,27 C47.146668,27.1066672 47.28,27.2533324 47.28,27.44 C47.28,27.6266676 46.546674,27.8399988 45.08,28.08 C43.613326,28.3200012 42.4533376,28.44 41.6,28.44 C39.6799904,28.44 38.72,27.640008 38.72,26.04 C38.72,24.173324 39.8666552,21.9333464 42.16,19.32 C44.4533448,16.7066536 46.9599864,14.6533408 49.68,13.16 C57.6267064,8.893312 62.666656,6.76 64.8,6.76 Z M52.08,42.6 C51.6533312,41.533328 51.306668,40.466672 51.04,39.4 C49.973328,40.9466744 48.906672,42.4666592 47.84,43.96 C48.373336,43.96 48.8533312,43.9200004 49.28,43.84 C49.7066688,43.7599996 50.6399928,43.3466704 52.08,42.6 Z M127.313028,56.1125923 C125.952579,57.2512564 124.528239,58.2670568 123.04,59.16 C118.879979,61.7200128 114.906686,63 111.12,63 C109.466658,63 108.120005,62.6400036 107.08,61.92 C106.039995,61.1999964 105.52,59.7466776 105.52,57.56 C105.52,56.6034916 105.703686,55.491367 106.071059,54.2236187 C101.445573,59.5412265 97.7685764,62.2 95.04,62.2 C94.5599976,62.2 94.1066688,62.1200008 93.68,61.96 C91.3333216,61.0533288 90.16,59.2933464 90.16,56.68 C90.16,55.7733288 90.2666656,54.8666712 90.48,53.96 L85.52,58.76 C82.3733176,61.5333472 80.0933404,62.92 78.68,62.92 C77.2666596,62.92 75.9200064,62.4666712 74.64,61.56 C73.1999928,60.493328 72.48,59.0800088 72.48,57.32 C72.48,53.4266472 75.1999728,48.7733604 80.64,43.36 C86.0800272,37.9466396 91.066644,35.24 95.6,35.24 C97.3600088,35.24 98.5333304,35.8533272 99.12,37.08 C99.2800008,37.5066688 99.4133328,37.8666652 99.52,38.16 C99.6266672,38.4533348 99.7066664,38.6 99.76,38.6 L100.88,38.36 C101.46667,38.36 102.026664,38.5999976 102.56,39.08 C103.093336,39.5600024 103.36,39.933332 103.36,40.2 C103.36,40.466668 101.706683,43.0399756 98.4,47.92 C95.0933168,52.8000244 93.44,56.1999904 93.44,58.12 C93.44,58.2800008 93.4666664,58.4399992 93.52,58.6 C93.786668,59.8266728 94.3733288,60.44 95.28,60.44 C97.6823443,60.44 101.805436,56.9984438 107.649372,50.1152421 C107.880729,49.6128011 108.130938,49.0943872 108.4,48.56 C110.32001,44.7466476 111.786662,41.906676 112.8,40.04 C112.05333,40.2000008 111.413336,40.28 110.88,40.28 C109.333326,40.28 108.56,39.6666728 108.56,38.44 C108.56,37.5333288 109.199994,36.8933352 110.48,36.52 C110.640001,36.52 110.879998,36.4933336 111.2,36.44 L115.84,36.44 C116.800005,35.2133272 117.893327,33.800008 119.12,32.2 C120.613341,30.2799904 121.626664,29.32 122.16,29.32 C122.693336,29.32 123.359996,29.5333312 124.16,29.96 C124.960004,30.3866688 125.36,30.8933304 125.36,31.48 C125.36,32.0666696 124.080013,33.7999856 121.52,36.68 C122.906674,36.7333336 124.719989,36.76 126.96,36.76 L138.48,36.6 C138.640001,36.7066672 138.72,36.7866664 138.72,36.84 C138.72,37.3200024 135.400033,37.9866624 128.76,38.84 C122.119967,39.6933376 118.533336,40.1999992 118,40.36 C116.986662,41.2666712 115.120014,43.9733108 112.4,48.48 C109.679986,52.9866892 108.32,56.2799896 108.32,58.36 C108.32,60.3333432 109.679986,61.32 112.4,61.32 C113.680006,61.32 115.35999,60.920004 117.44,60.12 C119.52001,59.319996 121.119994,58.5733368 122.24,57.88 C124.107941,56.7125366 126.059311,55.2008713 128.094132,53.3449841 C129.170655,50.6730176 131.219271,47.7580344 134.24,44.6 C138.933357,39.6933088 143.146648,37.24 146.88,37.24 C148.106673,37.24 149.106663,37.57333 149.88,38.24 C150.653337,38.90667 151.04,39.7199952 151.04,40.68 C151.04,43.6666816 148.786689,46.5199864 144.28,49.24 C139.773311,51.9600136 136.106681,53.32 133.28,53.32 C132.853331,53.32 132.480002,53.2666672 132.16,53.16 C131.359996,54.6000072 130.96,56.119992 130.96,57.72 C130.96,60.4933472 132.279987,61.88 134.92,61.88 C137.560013,61.88 140.986646,60.0933512 145.2,56.52 C148.45335,53.9066536 151.226655,51.133348 153.52,48.2 C154.000002,47.5599968 154.413332,47.24 154.76,47.24 C155.106668,47.24 155.28,47.3999984 155.28,47.72 C155.28,48.0400016 155.066669,48.4933304 154.64,49.08 C151.759986,52.8666856 148.293354,56.226652 144.24,59.16 C140.186646,62.093348 136.746681,63.56 133.92,63.56 C133.33333,63.56 132.800002,63.4800008 132.32,63.32 C128.90665,62.3599952 127.2,60.4400144 127.2,57.56 C127.2,57.086949 127.237676,56.6044798 127.313028,56.1125923 Z M49.04,35.72 C48.506664,36.5733376 46.9333464,38.866648 44.32,42.6 C43.7333304,41.8533296 43.44,40.9333388 43.44,39.84 C43.44,38.7466612 43.8266628,37.7200048 44.6,36.76 C45.3733372,35.7999952 46.1466628,35.32 46.92,35.32 C47.6933372,35.32 48.3999968,35.453332 49.04,35.72 Z M149.04,40.52 C149.04,39.8799968 148.360007,39.56 147,39.56 C145.639993,39.56 143.706679,40.5999896 141.2,42.68 C137.839983,45.4533472 135.226676,48.3599848 133.36,51.4 C133.680002,51.5066672 134.026665,51.56 134.4,51.56 C136.426677,51.56 139.133316,50.4800108 142.52,48.32 C145.906684,46.1599892 148.026662,43.8000128 148.88,41.24 C148.986667,40.973332 149.04,40.7333344 149.04,40.52 Z M75.84,58.28 C75.84,60.2000096 76.50666,61.16 77.84,61.16 C80.9333488,61.16 85.14664,57.7733672 90.48,51 L98.96,39.32 C98.5333312,38.5733296 97.8400048,38.2 96.88,38.2 C93.6266504,38.2 89.3066936,40.7199748 83.92,45.76 C78.5333064,50.8000252 75.84,54.9733168 75.84,58.28 Z" id="Kate"></path>
        </g>
    </g>
</svg>